<?xml version="1.0" encoding="utf-8"?>
<!-- Generator: Adobe Illustrator 17.0.0, SVG Export Plug-In . SVG Version: 6.00 Build 0)  -->
<!DOCTYPE svg PUBLIC "-//W3C//DTD SVG 1.1//EN" "http://www.w3.org/Graphics/SVG/1.1/DTD/svg11.dtd">
<svg version="1.1" id="Layer_1" xmlns="http://www.w3.org/2000/svg" xmlns:xlink="http://www.w3.org/1999/xlink" x="0px" y="0px"
	 width="119.932px" height="25px" viewBox="0 0 119.932 25" enable-background="new 0 0 119.932 25" xml:space="preserve">
<g>
	<g>
		<g>
			<path fill="#4B4A4B" d="M26.479,22.699l9.128-20.239c0.089-0.18,0.357-0.331,0.506-0.331h0.297c0.149,0,0.416,0.15,0.506,0.331
				l9.069,20.239c0.178,0.391-0.06,0.782-0.506,0.782h-1.873c-0.357,0-0.565-0.181-0.684-0.451l-1.843-4.12h-9.724
				c-0.594,1.383-1.219,2.737-1.814,4.12c-0.089,0.21-0.327,0.451-0.684,0.451h-1.873C26.538,23.481,26.3,23.089,26.479,22.699z
				 M39.949,16.323l-3.657-8.24h-0.149l-3.628,8.24H39.949z"/>
			<path fill="#4B4A4B" d="M50.326,2.743c0-0.305,0.238-0.578,0.565-0.578h8.088c3.568,0,6.482,2.893,6.482,6.517
				c0,2.801-1.813,5.116-4.4,6.181l4.074,7.735c0.208,0.396,0,0.883-0.506,0.883h-2.319c-0.238,0-0.416-0.152-0.476-0.274
				l-3.955-8.069h-4.49v7.765c0,0.304-0.268,0.578-0.565,0.578h-1.932c-0.327,0-0.565-0.274-0.565-0.578V2.743z M58.741,12.518
				c1.933,0,3.628-1.675,3.628-3.776c0-1.979-1.695-3.623-3.628-3.623h-5.293v7.399H58.741z"/>
			<path fill="#4B4A4B" d="M69.452,2.743c0-0.304,0.238-0.578,0.535-0.578h6.839c5.739,0,10.437,4.775,10.437,10.616
				c0,5.901-4.698,10.677-10.437,10.677h-6.839c-0.297,0-0.535-0.274-0.535-0.578V2.743z M76.41,20.567
				c4.371,0,7.553-3.285,7.553-7.787c0-4.471-3.181-7.726-7.553-7.726h-3.925v15.513H76.41z"/>
			<path fill="#4B4A4B" d="M91.486,2.744c0-0.305,0.267-0.579,0.565-0.579h1.962c0.298,0,0.565,0.274,0.565,0.579v20.182
				c0,0.305-0.267,0.579-0.565,0.579h-1.962c-0.298,0-0.565-0.275-0.565-0.579V2.744z"/>
			<path fill="#4B4A4B" d="M109.373,2.145c5.866,0,10.558,4.761,10.558,10.677c0,5.915-4.693,10.618-10.558,10.618
				c-5.866,0-10.529-4.702-10.529-10.618C98.844,6.906,103.507,2.145,109.373,2.145z M109.373,20.482
				c4.194,0,7.626-3.431,7.626-7.66c0-4.2-3.431-7.72-7.626-7.72c-4.165,0-7.596,3.52-7.596,7.72
				C101.777,17.05,105.209,20.482,109.373,20.482z"/>
		</g>
	</g>
	<g>
		<g>
			<radialGradient id="SVGID_1_" cx="11.9082" cy="12.5" r="12.2077" gradientUnits="userSpaceOnUse">
				<stop  offset="0" style="stop-color:#81B346"/>
				<stop  offset="1" style="stop-color:#3E9743"/>
			</radialGradient>
			<path fill="url(#SVGID_1_)" d="M23.465,9.046C21.884,2.665,15.429-1.229,9.046,0.352S-1.229,8.388,0.352,14.771
				c1.581,6.382,8.035,10.274,14.418,8.693c0.119-0.029,0.233-0.075,0.353-0.093c0.445-0.069,0.894,0,1.279,0.074
				c1.549,0.293,3.256,1.223,3.516,1.528c0.26,0.304,3.249-2.035,3.249-2.035s-1.546-1.524-2.457-1.975
				c-0.181-0.09-0.429-0.196-0.721-0.309C23.068,17.803,24.545,13.407,23.465,9.046z M13.855,19.773
				c-4.343,1.075-8.736-1.574-9.812-5.917C2.968,9.513,5.617,5.119,9.96,4.044c4.344-1.076,8.736,1.573,9.812,5.917
				C20.848,14.304,18.2,18.697,13.855,19.773z"/>
		</g>
	</g>
</g>
</svg>
